<svg width="1600" height="1000" viewBox="0 0 1600 1000" fill="none" xmlns="http://www.w3.org/2000/svg">
  <rect width="1600" height="1000" rx="40" fill="#09090B"/>
  <rect x="42" y="42" width="1516" height="916" rx="28" fill="#111218"/>
  <rect x="92" y="110" width="1416" height="780" rx="30" fill="#171821"/>
  <rect x="132" y="148" width="260" height="34" rx="17" fill="#F5EFE9" fill-opacity="0.9"/>
  <rect x="132" y="210" width="480" height="20" rx="10" fill="#F5EFE9" fill-opacity="0.18"/>
  <rect x="132" y="244" width="420" height="20" rx="10" fill="#F5EFE9" fill-opacity="0.12"/>
  <rect x="132" y="312" width="870" height="520" rx="28" fill="#1B1C24"/>
  <ellipse cx="342" cy="544" rx="138" ry="102" stroke="#EFC2C8" stroke-width="20"/>
  <ellipse cx="342" cy="544" rx="58" ry="58" stroke="#EFC2C8" stroke-width="12"/>
  <path d="M470 544H602" stroke="#EFC2C8" stroke-opacity="0.84" stroke-width="16" stroke-linecap="round"/>
  <ellipse cx="728" cy="544" rx="138" ry="102" stroke="#EFC2C8" stroke-width="20"/>
  <ellipse cx="728" cy="544" rx="58" ry="58" stroke="#EFC2C8" stroke-width="12"/>
  <path d="M856 544H1002" stroke="#EFC2C8" stroke-opacity="0.84" stroke-width="16" stroke-linecap="round"/>
  <rect x="1092" y="312" width="360" height="160" rx="28" fill="#B14659"/>
  <rect x="1092" y="504" width="360" height="160" rx="28" fill="#1D1E27"/>
  <rect x="1092" y="696" width="360" height="136" rx="28" fill="#1D1E27"/>
  <rect x="1132" y="352" width="220" height="30" rx="15" fill="#F5EFE9" fill-opacity="0.82"/>
  <rect x="1132" y="404" width="274" height="18" rx="9" fill="#F5EFE9" fill-opacity="0.14"/>
  <rect x="1132" y="548" width="132" height="84" rx="22" fill="#B14659" fill-opacity="0.36"/>
  <rect x="1282" y="548" width="130" height="84" rx="22" fill="#F5EFE9" fill-opacity="0.08"/>
  <text x="102" y="932" fill="#F5EFE9" fill-opacity="0.68" font-family="Arial, sans-serif" font-size="28" letter-spacing="6">GLASSES CONFIGURATOR / VUE / SUPABASE / AI</text>
</svg>
